# xmcd
#
# Track frame offsets: 
#        187
#        20875
#        39190
#        57540
#        72675
#        90800
#        109235
#        128415
#        148867
#        166922
#        185207
#        202482
#
# Disc length: 2886 seconds
#
# Revision: 6
# Processed by: cddbd v1.5.2PL0 Copyright (c) Steve Scherf et al.
# Submitted via: ExactAudioCopy v0.99pb5
#
DISCID=b70b440c
DTITLE=Europe - Out Of This World (Japan, VDPB-25001)
DYEAR=1988
DGENRE=Hard Rock
TTITLE0=Superstitious
TTITLE1=Let The Good Times Rock
TTITLE2=Open Your Heart
TTITLE3=More Than Meets The Eye
TTITLE4=Coast To Coast
TTITLE5=Ready Or Not
TTITLE6=Sign Of The Times
TTITLE7=Just The Beginning
TTITLE8=Never Say Die
TTITLE9=Lights And Shadows
TTITLE10=Tower's Callin'
TTITLE11=Tomorrow
EXTD=YEAR: 1988
EXTT0=
EXTT1=
EXTT2=
EXTT3=
EXTT4=
EXTT5=
EXTT6=
EXTT7=
EXTT8=
EXTT9=
EXTT10=
EXTT11=
PLAYORDER=
